<svg clip-rule="evenodd" fill-rule="evenodd" height="512" image-rendering="optimizeQuality" shape-rendering="geometricPrecision" text-rendering="geometricPrecision" viewBox="0 0 850 850" width="512" xmlns="http://www.w3.org/2000/svg"><g id="Layer_x0020_1"><circle cx="425" cy="425" fill="#cae4c0" r="425"/><path d="m425 681c-141 0-256-115-256-256s115-256 256-256 256 115 256 256-115 256-256 256zm1-30h-1c-2 0-4-2-6-4l-201-274c-2-2-3-6-2-9l55-98c1-1 2-3 4-4 1-1 3-1 5-1h143 4 145c3 0 5 2 6 4l55 98s1 1 1 2c1 2 1 5 0 7l-201 275c-1 1-1 1-2 2s-3 2-5 2zm-191-291h88l-45-77zm56-84 46 80 72-80zm151 0 71 79 47-79zm130 7-45 77h88zm-167 319-75-227h-93zm115-227-73 227 166-227zm-95-95-73 80h146zm-79 95 80 245 79-245z" fill="#82c34c"/></g></svg>