<svg id="Capa_1" enable-background="new 0 0 508.277 508.277" height="512" viewBox="0 0 508.277 508.277" width="512" xmlns="http://www.w3.org/2000/svg"><g><g><path d="m254.139 425.553c-122.897 0-225.244-137.872-245.053-166.318-2.135-3.066-2.135-7.127 0-10.193 19.808-28.446 122.156-166.318 245.053-166.318s225.244 137.872 245.053 166.318c2.135 3.066 2.135 7.127 0 10.193-19.809 28.446-122.157 166.318-245.053 166.318z" fill="#f2fbff"/><path d="m117.653 301.446c-23.434-27.193-23.434-67.422 0-94.615 37.453-43.46 100.606-103.534 174.298-119.861-12.329-2.731-24.964-4.246-37.813-4.246-122.902 0-225.254 137.886-245.056 166.322-2.133 3.063-2.133 7.121 0 10.184 19.802 28.437 122.153 166.322 245.056 166.322 12.849 0 25.491-1.522 37.82-4.254-73.692-16.325-136.852-76.392-174.305-119.852z" fill="#dff6fd"/><circle cx="254.139" cy="254.139" fill="#cbc4cc" r="141.415"/><circle cx="254.139" cy="254.136" fill="#a79ba7" r="111.415"/><path d="m306.196 244.929c-.111.001-4.472.031-4.535.222-.064.193-3.932-8.767-3.932-8.767l1.66-5.849c-2.94-5.293-6.322-10.668-9.895-15.91l-6.716.627-3.061-7.556.868-5.455c-6.623-8.773-13.109-16.543-17.863-22.035l-7.5 5.172-7.5-5.172c-4.751 5.488-11.231 13.252-17.849 22.017l.764 4.671-6.981 8.193-2.706-.462c-3.629 5.325-7.062 10.787-10.033 16.162l.955 5.679-4.802 8.288-2.822.176c-2.011 5.362-3.206 10.395-3.206 14.811 0 29.923 24.258 54.181 54.181 54.181s54.181-24.258 54.181-54.181c-.002-4.416-1.196-9.449-3.208-14.812z" fill="#bbec6c"/></g><g><path d="m505.346 244.756c-11.097-15.935-41.601-57.11-85.083-95.183-56.342-49.335-112.235-74.35-166.125-74.35s-109.783 25.015-166.125 74.35c-43.481 38.073-73.986 79.248-85.082 95.183-3.909 5.612-3.909 13.153 0 18.764 8.987 12.907 33.715 46.594 69.146 80.569 2.989 2.867 7.737 2.767 10.604-.223s2.767-7.737-.223-10.604c-34.46-33.043-58.488-65.775-67.219-78.314-.342-.492-.342-1.128 0-1.62 18.968-27.236 119.623-163.104 238.9-163.104s219.931 135.868 238.898 163.105c.342.492.342 1.128 0 1.62-18.966 27.237-119.622 163.104-238.898 163.104-47.544 0-97.414-21.46-148.223-63.785-3.182-2.65-7.911-2.22-10.563.962-2.651 3.183-2.22 7.912.962 10.563 53.578 44.63 106.677 67.259 157.824 67.259 53.89 0 109.783-25.015 166.125-74.35 43.481-38.073 73.986-79.248 85.082-95.183 3.908-5.61 3.908-13.151 0-18.763z"/><path d="m361.241 346.777c3.27 2.542 7.983 1.952 10.524-1.318 20.468-26.329 31.288-57.907 31.288-91.32 0-82.112-66.803-148.915-148.915-148.915s-148.915 66.803-148.915 148.915 66.803 148.915 148.915 148.915c33.994 0 67.246-11.764 93.63-33.125 3.219-2.606 3.716-7.329 1.11-10.548-2.607-3.22-7.33-3.716-10.548-1.11-23.723 19.206-53.623 29.783-84.192 29.783-73.841 0-133.915-60.074-133.915-133.915s60.074-133.915 133.915-133.915 133.915 60.074 133.915 133.915c0 30.047-9.727 58.442-28.13 82.114-2.542 3.27-1.952 7.982 1.318 10.524z"/><path d="m185.002 176.638c3.089-2.759 3.357-7.5.598-10.59s-7.501-3.357-10.59-.598c-25.284 22.582-39.786 54.907-39.786 88.688 0 65.57 53.345 118.915 118.915 118.915s118.915-53.345 118.915-118.915-53.345-118.915-118.915-118.915c-17.707 0-34.766 3.824-50.704 11.367-3.744 1.772-5.342 6.244-3.571 9.988 1.772 3.744 6.245 5.341 9.988 3.571 13.916-6.586 28.816-9.925 44.287-9.925 57.299 0 103.915 46.616 103.915 103.915s-46.616 103.915-103.915 103.915-103.915-46.616-103.915-103.915c0-29.514 12.676-57.762 34.778-77.501z"/><path d="m255.225 342.211c4.142 0 7.5-3.358 7.5-7.5v-13.745c30.484-3.715 54.181-29.738 54.181-61.208 0-12.845-7.611-29.96-23.269-52.324-11.912-17.014-25.225-32.22-30.396-37.968-2.042-2.27-4.964-3.572-8.016-3.572s-5.973 1.302-8.016 3.572c-5.171 5.749-18.485 20.956-30.396 37.967-15.658 22.364-23.269 39.479-23.269 52.324 0 31.47 23.697 57.494 54.181 61.208v13.745c0 4.143 3.357 7.501 7.5 7.501zm7.5-36.384v-17.397l37.606-37.605c1.013 3.289 1.575 6.299 1.575 8.933-.001 23.186-16.996 42.47-39.181 46.069zm31.152-69.762-31.152 31.152v-25.789l21.376-21.376c3.704 5.502 7.028 10.901 9.776 16.013zm-18.6-28.403-12.553 12.553v-28.419c4.275 5.134 8.519 10.479 12.553 15.866zm-27.552-15.866v28.419l-12.552-12.552c4.034-5.388 8.278-10.732 12.552-15.867zm-21.376 28.256 21.376 21.376v25.789l-31.152-31.151c2.747-5.112 6.072-10.512 9.776-16.014zm-17.805 39.705c0-2.634.561-5.644 1.575-8.933l37.606 37.605v17.398c-22.186-3.599-39.181-22.883-39.181-46.07z"/></g></g></svg>