<svg height="512" viewBox="0 0 64 64" width="512" xmlns="http://www.w3.org/2000/svg"><g id="Twotone"><g id="Color_copy" data-name="Color copy"><path d="m61 51v4h-5v6h-14v-9l-2.05-1.34-.88-6.15 2.93.49h5v1l3 3 3-3v-1h2a6 6 0 0 1 6 6z" fill="#79bd9a"/><path d="m56 34h-3.17a6.835 6.835 0 0 1 -4.83-2l-.59.59a4.829 4.829 0 0 1 -3.41 1.41v-6h6a6.009 6.009 0 0 1 6 6z" fill="#79bd9a"/><path d="m53 44.47a6.021 6.021 0 0 1 -3.37 1.5 5.98 5.98 0 0 0 2.44.96l-2.07 2.07-3-3v-1.81a5.961 5.961 0 0 0 6 0z" fill="#cff09e"/><path d="m46 35.55v1.45a6 6 0 0 0 9.11 5.13 5.994 5.994 0 0 1 -11.11-3.13v-5a4.829 4.829 0 0 0 3.41-1.41l.59-.59a6.835 6.835 0 0 0 4.83 2h3.17v2h-3.17a6.835 6.835 0 0 1 -4.83-2l-.59.59a4.829 4.829 0 0 1 -1.41.96z" fill="#cff09e"/><path d="m55 45-1 6-4-2 3-3v-1z" fill="#a8dba8"/><path d="m45 45 1 6 4-2-3-3v-1z" fill="#a8dba8"/><path d="m61 55v1a3 3 0 0 0 -3 3v2h-2v-6z" fill="#cff09e"/><path d="m39.95 50.66-5.22-1.75a3.991 3.991 0 0 1 -2.73-3.79v-7.12a2.015 2.015 0 0 1 2-2v6.98a4 4 0 0 0 2.9 3.85 1.032 1.032 0 0 0 .3.04 1.1 1.1 0 0 0 1.09-1.22l-.14-1.29.92.15z" fill="#cff09e"/><path d="m25 53v4h-5v4h-12v-4h-5v-4a6 6 0 0 1 6-6h2v1l3 3 3-3v-1h2a6 6 0 0 1 6 6z" fill="#79bd9a"/><path d="m20 37v3a4 4 0 0 0 -1.6-3.2l-2.4-1.8a11.943 11.943 0 0 1 -6.61 2h-1.39a6 6 0 0 1 12 0z" fill="#79bd9a"/><g fill="#cff09e"><path d="m25 57v1a3 3 0 0 0 -3 3h-2v-4z"/><path d="m3 57v1a3 3 0 0 1 3 3h2v-4z"/><path d="m17 46.47a6.021 6.021 0 0 1 -3.37 1.5 5.98 5.98 0 0 0 2.44.96l-2.07 2.07-3-3v-1.81a5.961 5.961 0 0 0 6 0z"/><path d="m20 40v1a4.578 4.578 0 0 1 -.03.53 3.971 3.971 0 0 0 -1.57-2.73l-2.4-1.8a11.934 11.934 0 0 1 -6 1.98v.02a6 6 0 0 0 9.11 5.13 5.994 5.994 0 0 1 -11.11-3.13v-4h1.39a11.943 11.943 0 0 0 6.61-2l2.4 1.8a4 4 0 0 1 1.6 3.2z"/><path d="m29 5a11.995 11.995 0 0 0 -6.517 22.068l-.483 5.932 4.1-4.368a11.995 11.995 0 1 0 2.9-23.632z"/></g><circle cx="29" cy="17" fill="#79bd9a" r="8"/><circle cx="29" cy="17" fill="#cff09e" r="4"/><path d="m38.67 5.5.268 4.464 4.33-2.5-.268-4.464z" fill="#79bd9a"/><path d="m43.67 14.16-3.732-2.464 4.33-2.5 3.732 2.464z" fill="#79bd9a"/><path d="m30.912 18.062-2.733-.732.733-2.732 14.356-7.134 1 1.732z" fill="#a8dba8"/></g><g id="Stroke_Close_copy" fill="#3b8686" data-name="Stroke Close copy"><path d="m55 44h-.11a6.977 6.977 0 0 0 2.11-5v-5a7.008 7.008 0 0 0 -7-7h-6a1 1 0 0 0 -1 1v11a6.977 6.977 0 0 0 2.11 5h-3.027l-5.083-.847v-5.153a3 3 0 0 0 -6 0v7.12a4.993 4.993 0 0 0 3.414 4.741l5.1 1.705 1.486.975v8.459a1 1 0 0 0 2 0v-9a1 1 0 0 0 -.452-.836l-1.671-1.094-.621-4.347 1.579.263a.919.919 0 0 0 .165.014h2.153l.861 5.165a1 1 0 0 0 1.433.73l2.553-1.277v10.382a1 1 0 0 0 2 0v-10.382l2.553 1.282a1 1 0 0 0 1.433-.73l.847-5.081a5 5 0 0 1 4.167 4.911v3h-3v-1a1 1 0 0 0 -2 0v8a1 1 0 0 0 2 0v-5h3v5a1 1 0 0 0 2 0v-10a7.008 7.008 0 0 0 -7-7zm-16.268 5.2-3.684-1.232a3 3 0 0 1 -2.048-2.848v-7.12a1 1 0 0 1 2 0v6a1 1 0 0 0 .835.986l2.352.392zm11.268-1.614-1.839-1.839a6.81 6.81 0 0 0 3.678 0zm0-18.586a5.009 5.009 0 0 1 4.9 4h-2.07a5.789 5.789 0 0 1 -4.122-1.707 1 1 0 0 0 -1.414 0l-.586.586a3.8 3.8 0 0 1 -1.708.973v-3.852zm-5 10v-4.085a5.776 5.776 0 0 0 3.043-1.546 7.771 7.771 0 0 0 4.786 1.631h2.171v4a5 5 0 0 1 -10 0zm1.764 10.5-.464-2.787 2.013 2.013zm6.472 0-1.548-.774 2.012-2.013z"/><circle cx="48" cy="38" r="1"/><circle cx="52" cy="38" r="1"/><path d="m19 46h-.11a6.977 6.977 0 0 0 2.11-5v-4a7 7 0 0 0 -11.944-4.951 6.919 6.919 0 0 0 -2.056 4.951v4a6.977 6.977 0 0 0 2.11 5h-.11a7.008 7.008 0 0 0 -7 7v8a1 1 0 0 0 2 0v-3h3v3a1 1 0 0 0 2 0v-6a1 1 0 0 0 -2 0v1h-3v-3a5.006 5.006 0 0 1 5-5h1a1 1 0 0 0 .293.707l3 3a1 1 0 0 0 1.414 0l3-3a1 1 0 0 0 .293-.707h1a5.006 5.006 0 0 1 5 5v3h-3v-1a1 1 0 0 0 -2 0v6a1 1 0 0 0 2 0v-3h3v3a1 1 0 0 0 2 0v-8a7.008 7.008 0 0 0 -7-7zm-5-14a4.992 4.992 0 0 1 4.87 3.9l-2.27-1.7a1 1 0 0 0 -1.155-.032 10.87 10.87 0 0 1 -6.045 1.832h-.3a5.015 5.015 0 0 1 4.9-4zm-5 9v-3h.4a12.858 12.858 0 0 0 6.554-1.788l1.846 1.388a3.015 3.015 0 0 1 1.2 2.4v1a5 5 0 0 1 -10 0zm5 8.586-1.839-1.839a6.81 6.81 0 0 0 3.678 0z"/><circle cx="12" cy="40" r="1"/><circle cx="16" cy="40" r="1"/><path d="m42 17a12.847 12.847 0 0 0 -.36-2.982l1.479.982a1 1 0 0 0 1.051.031l4.33-2.5a1 1 0 0 0 .051-1.7l-3.534-2.339-.765-1.324-.252-4.228a1 1 0 0 0 -1.5-.806l-4.33 2.5a1 1 0 0 0 -.5.926l.114 1.9a12.844 12.844 0 0 0 -8.784-3.46 12.994 12.994 0 0 0 -7.561 23.566l-.439 5.353a1 1 0 0 0 1.726.765l3.706-3.951a12.818 12.818 0 0 0 2.568.267 13.015 13.015 0 0 0 13-13zm-6 0a7.033 7.033 0 1 1 -2.853-5.623l-2.141 1.064a4.847 4.847 0 0 0 -2.006-.441 5 5 0 1 0 4.977 5.227l1.931-1.281a6.8 6.8 0 0 1 .092 1.054zm-8.079 1.3 2.732.732a.99.99 0 0 0 .259.034.976.976 0 0 0 .294-.046 2.991 2.991 0 1 1 -3.176-4.841.977.977 0 0 0 -.084.164l-.732 2.732a1 1 0 0 0 .707 1.225zm2.813-1.317-1.33-.356.357-1.33 13.111-6.52.061.106zm12.971-3.994-1.673-1.1 2.238-1.489 1.83 1.2zm-1.605-8.314.131 2.188-2.4 1.195-.12-2zm-13.1 23.325a11.047 11.047 0 0 1 -2.662-.339 1.006 1.006 0 0 0 -.971.286l-2.138 2.28.251-3.079a1 1 0 0 0 -.453-.919 10.991 10.991 0 1 1 13.966-16.763l-1.892.94a8.984 8.984 0 1 0 2.899 6.594 8.865 8.865 0 0 0 -.292-2.249l1.745-1.158a10.847 10.847 0 0 1 .547 3.407 11.013 11.013 0 0 1 -11 11z"/></g></g></svg>